<svg id="visual" viewBox="0 0 960 540" width="960" height="540" xmlns="http://www.w3.org/2000/svg" xmlns:xlink="http://www.w3.org/1999/xlink" version="1.1"><rect x="0" y="0" width="960" height="540" fill="#0b0d10"></rect><path d="M0 432L20 423.8C40 415.7 80 399.3 120 393.5C160 387.7 200 392.3 240 388.7C280 385 320 373 360 363C400 353 440 345 480 361.5C520 378 560 419 600 422C640 425 680 390 720 379.5C760 369 800 383 840 388.8C880 394.7 920 392.3 940 391.2L960 390L960 541L940 541C920 541 880 541 840 541C800 541 760 541 720 541C680 541 640 541 600 541C560 541 520 541 480 541C440 541 400 541 360 541C320 541 280 541 240 541C200 541 160 541 120 541C80 541 40 541 20 541L0 541Z" fill="#715DF2" stroke-linecap="round" stroke-linejoin="miter"></path></svg>